<!DOCTYPE svg PUBLIC "-//W3C//DTD SVG 1.1//EN" "http://www.w3.org/Graphics/SVG/1.1/DTD/svg11.dtd">
<!-- Uploaded to: SVG Repo, www.svgrepo.com, Transformed by: SVG Repo Mixer Tools -->
<svg height="800px" width="800px" version="1.1" id="Layer_1" xmlns="http://www.w3.org/2000/svg" xmlns:xlink="http://www.w3.org/1999/xlink" viewBox="0 0 512 512" xml:space="preserve" fill="#000000" transform="rotate(0)">
<g id="SVGRepo_bgCarrier" stroke-width="0"/>
<g id="SVGRepo_tracerCarrier" stroke-linecap="round" stroke-linejoin="round"/>
<g id="SVGRepo_iconCarrier"> <g> <path style="fill:#68615B;" d="M255.999,25.319c-4.662,0-8.44,3.778-8.44,8.44v56.264h16.879V33.758 C264.438,29.096,260.661,25.319,255.999,25.319z"/> <path style="fill:#68615B;" d="M289.757,27.231c-4.662,0-8.44,3.778-8.44,8.44v56.528h16.879V35.67 C298.197,31.009,294.419,27.231,289.757,27.231z"/> <path style="fill:#68615B;" d="M323.515,33.109c-4.662,0-8.44,3.778-8.44,8.44v57.395h16.879V41.549 C331.955,36.887,328.177,33.109,323.515,33.109z"/> <path style="fill:#68615B;" d="M222.241,27.231c-4.662,0-8.44,3.778-8.44,8.44v56.528h16.879V35.67 C230.68,31.009,226.903,27.231,222.241,27.231z"/> <path style="fill:#68615B;" d="M188.482,33.109c-4.662,0-8.44,3.778-8.44,8.44v57.395h16.879V41.549 C196.922,36.887,193.144,33.109,188.482,33.109z"/> </g> <path style="fill:#3B3734;" d="M356.56,87.963C372.775,46.125,405.195,9.857,439.065,0c37.123,37.944,44.201,89.347,45.315,194.234 l0.191,74.223c0,49.129-20.075,94.14-53.383,129.047l-63.623,66.706c-14.066,14.752-30.979,26.68-49.872,34.951 C298.8,507.42,277.937,512,255.994,512c-43.874,0-83.462-18.331-111.537-47.757c-0.034-0.034-63.646-66.74-63.646-66.74 c-33.308-34.906-53.383-79.917-53.383-129.047l0.191-74.223C28.734,89.347,35.812,37.944,72.935,0 c33.86,9.857,66.29,46.125,82.494,87.963c30.337-13.098,64.478-20.446,100.566-20.446S326.212,74.865,356.56,87.963z"/> <g> <path style="fill:#F1ECDE;" d="M165.976,329.252c-37.229,0-67.516-30.219-67.516-67.363v-39.691 c0-37.144,30.288-67.363,67.516-67.363s67.516,30.219,67.516,67.363v39.691C233.492,299.033,203.204,329.252,165.976,329.252z"/> <path style="fill:#F1ECDE;" d="M346.02,329.252c-37.229,0-67.516-30.219-67.516-67.363v-39.691 c0-37.144,30.288-67.363,67.516-67.363s67.516,30.219,67.516,67.363v39.691C413.536,299.033,383.248,329.252,346.02,329.252z"/> </g> <g> <path style="fill:#669c35;" d="M165.976,295.494c-18.614,0-33.758-15.075-33.758-33.605v-39.691 c0-18.53,15.144-33.605,33.758-33.605s33.758,15.075,33.758,33.605v39.691C199.734,280.418,184.591,295.494,165.976,295.494z"/> <path style="fill:#669c35;" d="M346.02,295.494c-18.614,0-33.758-15.075-33.758-33.605v-39.691 c0-18.53,15.144-33.605,33.758-33.605s33.758,15.075,33.758,33.605v39.691C379.778,280.418,364.635,295.494,346.02,295.494z"/> </g> <g> <path style="fill:#440852;" d="M165.977,270.175c-4.662,0-8.44-3.778-8.44-8.44v-39.385c0-4.662,3.778-8.44,8.44-8.44 s8.44,3.778,8.44,8.44v39.385C174.416,266.396,170.639,270.175,165.977,270.175z"/> <path style="fill:#440852;" d="M346.021,270.175c-4.662,0-8.44-3.778-8.44-8.44v-39.385c0-4.662,3.778-8.44,8.44-8.44 s8.44,3.778,8.44,8.44v39.385C354.46,266.396,350.683,270.175,346.021,270.175z"/> </g> <g> <path style="fill:#F1ECDE;" d="M202.548,410.384v22.505c0,4.662,3.778,8.44,8.44,8.44s8.44-3.778,8.44-8.44v-22.505H202.548z"/> <path style="fill:#F1ECDE;" d="M292.57,410.384v22.505c0,4.662,3.778,8.44,8.44,8.44s8.44-3.778,8.44-8.44v-22.505H292.57z"/> </g> <path style="fill:#68615B;" d="M323.515,418.824h-33.758c-13.788,0-26.052-6.647-33.758-16.905 c-7.706,10.258-19.97,16.905-33.758,16.905h-33.758c-4.662,0-8.44-3.778-8.44-8.44s3.778-8.44,8.44-8.44h33.758 c13.96,0,25.319-11.359,25.319-25.319c0-4.662,3.778-8.44,8.44-8.44c4.662,0,8.44,3.778,8.44,8.44 c0,13.96,11.359,25.319,25.319,25.319h33.758c4.662,0,8.44,3.778,8.44,8.44S328.177,418.824,323.515,418.824z"/> <path style="fill:#F16831;" d="M255.998,376.626l28.466-18.51c0-9.597-7.78-17.379-17.379-17.379h-22.176 c-9.597,0-17.379,7.78-17.379,17.379L255.998,376.626z"/> </g>
</svg>